<?xml version="1.0" encoding="UTF-8" standalone="no" ?>
<!DOCTYPE svg PUBLIC "-//W3C//DTD SVG 1.1//EN" "http://www.w3.org/Graphics/SVG/1.1/DTD/svg11.dtd">
<svg xmlns="http://www.w3.org/2000/svg" xmlns:xlink="http://www.w3.org/1999/xlink" version="1.1" width="1280" height="1024" viewBox="0 0 1280 1024" xml:space="preserve">
<desc>Created with Fabric.js 5.3.0</desc>
<defs>
</defs>
<g transform="matrix(1 0 0 1 640 512)" id="background-logo"  >
<rect style="stroke: none; stroke-width: 0; stroke-dasharray: none; stroke-linecap: butt; stroke-dashoffset: 0; stroke-linejoin: miter; stroke-miterlimit: 4; fill: rgb(255,255,255); fill-rule: nonzero; opacity: 1;"  paint-order="stroke"  x="-640" y="-512" rx="0" ry="0" width="1280" height="1024" />
</g>
<g transform="matrix(2.7830120090823915 0 0 2.7830120090823915 640.525613252334 487.56871007337213)" id="logo-logo"  >
<g style=""  paint-order="stroke"   >
		<g transform="matrix(0.37891914727722564 0 0 0.37891914727722564 -0.00010405119792267215 56.08232341597676)"  >
<linearGradient id="SVGID_407_1132526" gradientUnits="userSpaceOnUse" gradientTransform="matrix(1 0 0 1 251.70294190000004 510.08435059999994)"  x1="0" y1="0" x2="0" y2="556">
<stop offset="0%" style="stop-color:rgb(23,234,217);stop-opacity: 1"/>
<stop offset="100%" style="stop-color:rgb(96,120,234);stop-opacity: 1"/>
</linearGradient>
<path style="stroke: none; stroke-width: 1; stroke-dasharray: none; stroke-linecap: butt; stroke-dashoffset: 0; stroke-linejoin: miter; stroke-miterlimit: 4; fill: url(#SVGID_407_1132526); fill-rule: nonzero; opacity: 1;"  paint-order="stroke"  transform=" translate(-639.9997254, -788.0060424999999)" d="M 560.6435547 957.6166992 L 719.355896 957.6166992 L 639.9997559000001 1065.9277344 L 560.6435547 957.6166992 z M 705.7290039 510.0843506 C 705.8701781999999 510.4378052 705.9537353 510.6307373 705.9537353 510.6307373 C 705.3952635999999 510.45440670000005 704.8432617 510.2678833 704.2893676 510.0843506 L 251.7029419 510.0843506 L 432.81695560000003 757.2818604 L 847.1824952 757.2818604 L 1028.2965089 510.0843506 L 705.7290039 510.0843506 z" stroke-linecap="round" />
</g>
		<g transform="matrix(0.37891914727722564 0 0 0.37891914727722564 -5.684342e-14 0)"  >
<path style="stroke: none; stroke-width: 1; stroke-dasharray: none; stroke-linecap: butt; stroke-dashoffset: 0; stroke-linejoin: miter; stroke-miterlimit: 4; fill: rgb(38,47,52); fill-rule: nonzero; opacity: 1;"  paint-order="stroke"  transform=" translate(-640, -640)" d="M 1056.3580322 495.8568726 L 856.7764892 495.8568726 C 856.2402343 486.9456788 857.6548461 478.37072759999995 862.8381957 469.55328369999995 C 883.4902953000001 434.4218139999999 949.5659179 447.33544919999997 949.5659179 447.33544919999997 C 926.6029662000001 368.73144529999996 855.0645751000001 365.93469239999996 855.0645751000001 365.93469239999996 L 871.8451537000001 355.4835816 C 775.2830199000001 339.8805543 744.4694823000001 404.9423218 744.4694823000001 404.9423218 L 743.0808715000001 390.6149903 C 696.6567992 429.5245362 697.3613891000001 473.4945679 701.7294311 495.8568726 L 674.197876 495.8568726 C 660.2337646999999 487.2282105 648.9124145999999 477.3299561 640.9163818999999 469.3690186 C 648.8906860999999 469.0418091 657.4323120999999 468.2913819 666.1109008999999 466.8802491 C 666.1109008999999 466.8802491 632.5496215999999 445.9780885 626.6616820999999 418.8936158 C 626.6616820999999 418.8936158 669.9380492999999 400.64093030000004 695.4667967999999 348.3854981 C 695.4667967999999 348.3854981 663.6719359999998 356.6286622 626.5779417999998 351.32946780000003 C 626.5779417999998 351.32946780000003 644.8305662999999 334.8432617 648.9521482999999 324.24499510000004 C 648.9521482999999 324.24499510000004 621.8675535999998 332.48803710000004 598.9046018999999 333.0769043 C 598.9046018999999 333.0769043 617.1572873999999 308.34753420000004 620.1011960999999 293.62768550000004 C 620.1011960999999 293.62768550000004 595.9606931999999 301.2820434 582.4183957999999 301.2820434 C 586.9324951 268.5057983 575.5491333 229.4491577 567.6985474 190 C 552.1936646 218.0658569 513.5295411000001 236.3184204 493.22283940000005 270.5802612 L 461.32312020000006 275.375061 C 443.09606940000003 262.82055660000003 436.06677250000007 241.5663452 449.3510133000001 207.0750122 C 402.29156510000007 235.3010864 389.3653566000001 275.6970215 399.30352790000006 324.2449951 C 399.30352790000006 324.2449951 376.92938240000007 362.51654049999996 391.64923100000004 381.9467163 C 391.64923100000004 381.9467163 381.6397706 393.7226562 362.20953370000007 404.3209228 C 342.77935790000004 414.9191894 349.8449097000001 428.4614257 355.14404300000007 437.2933349 C 360.44317630000006 446.1252441 380.75653080000006 489.6959838 448.7622681000001 465.7517089 C 448.7622681000001 465.7517089 450.49859620000007 480.0455321 447.7500611000001 495.8568725 L 223.6419678 495.8568725 L 404.3909912 742.557373 L 279.76464839999994 772.737854 L 1000.2349853 772.737854 L 875.6082762999999 742.557312 L 1056.3580322 495.8568726 z M 466.1339722 709.9922485 C 453.5852661 712.4689331 446.8031006 721.1160887999999 446.32025150000004 732.0172119 L 424.52520760000004 732.0172119 L 279.22491460000003 525.0645141 L 412.55139170000007 653.3948364 L 365.41442880000005 549.1712036 L 440.1560059000001 635.4707641 L 462.3913575000001 606.4107055 C 470.4154053 638.828064 471.7478638 676.30896 466.1339722 709.9922485 z M 613.7736206 734.470459 C 611.3203125 734.470459 598.3178101 734.470459 598.3178101 734.470459 C 598.3178101 734.470459 605.6777344 708.8891602 606.8552857 690.2974243 C 606.8552857 690.2974243 624.3075562 704.3421631 636.1477662 718.6619873 C 623.0471802 716.7484741 613.3320312 728.3280029 613.7736206 734.470459 z M 783.8132935 732.0172119 C 811.7725831 714.7254639 815.6564942 669.1202392 815.6564942 669.1202392 C 847.5473023 650.5511474 869.6725464 627.0548705 880.2398682 564.3616943 C 882.0010987000001 595.4030760999999 876.4422608000001 635.0304564999999 861.9365845000001 669.7793578999999 L 1011.0101319 522.0924683 L 855.8029785 732.0172119 L 783.8132935 732.0172119 z M 552.0499878 969.9602661 L 639.9995728 1090 L 727.949524 969.9602050999999 L 849.4070435 940.9316405999999 L 430.5924072 940.9316405999999 L 552.0499878 969.9602661 z M 660.3080444 971.8439941 L 639.8338623 1014.4624023 L 691.2944946 971.8439941 L 639.9995727 1041.8547363 L 588.7050781 971.8439941 L 660.3080444 971.8439941 z" stroke-linecap="round" />
</g>
		<g transform="matrix(0.37891914727722564 0 0 0.37891914727722564 2.1307842065915565 -57.91367730038493)"  >
<path style="stroke: none; stroke-width: 1; stroke-dasharray: none; stroke-linecap: butt; stroke-dashoffset: 0; stroke-linejoin: miter; stroke-miterlimit: 4; fill: rgb(242,242,242); fill-rule: nonzero; opacity: 1;"  paint-order="stroke"  transform=" translate(-645.6233215499999, -487.16085815)" d="M 409.5093384 309.9176636 C 405.58398439999996 275.96386720000004 420.3038941 250.32568360000002 420.3038941 250.32568360000002 C 414.4158936 268.382019 417.7524415 302.6558228 417.7524415 302.6558228 L 409.5093384 309.9176636 z M 564.9508667 308.1513062 C 566.7172852 306.1886597 569.0724487 269.2908936 562.006897 239.4586792 C 562.006897 239.4586792 555.1376343 275.7676392 541.3991089 296.9642334 C 541.3991089 296.9642334 552.9787598 287.7888184 557.2474976 280.7723999 C 557.2474976 280.7723999 549.642212 303.440918 537.670044 322.0860596 C 537.6700439 322.0860596 563.1844482 310.1138916 564.9508667 308.1513062 z M 593.2129517 491.8548584 C 564.5583495999999 471.6396484 526.4829712 470.5602417 526.4829712 470.5602417 C 586.5399779999999 492.9343872 548.690979 544.3278198 548.690979 544.3278198 C 543.0770874 520.2762451000001 533.6351929 504.89288330000005 521.4782715 489.69604490000006 C 532.3709717 522.6684570000001 521.7745972 568.8630981000001 542.1860962 599.3341675 C 514.4618529999999 589.8634033000001 496.1601562999999 559.7624512 496.1601562999999 559.7624512 C 498.07366949999994 581.9894409 510.38928229999993 608.6323242 510.38928229999993 608.6323242 C 440.51910409999994 557.6035155999999 476.63177499999995 489.1072388 476.63177499999995 489.1072388 C 476.63177499999995 505.7896729 488.50579839999995 529.7339478 488.50579839999995 529.7339478 C 489.3889770999999 502.256897 501.75360109999997 482.4342041 474.66912849999994 458.6390381 L 499.98724369999996 457.508606 C 478.0056153 440.8261109 434.4348755 458.85070809999996 407.10504159999994 458.637146 C 383.8605347999999 458.4555054 373.69104009999995 440.8261108 373.69104009999995 440.8261108 C 389.78472909999994 442.0037231 394.86151129999996 421.9779052 394.86151129999996 421.9779052 C 394.86151129999996 421.9779052 455.42083749999995 414.8701171 478.77630619999996 401.1315917 C 502.39648439999996 387.2374267 505.02380379999994 377.44635 521.7745972 370.8320922 C 542.7749024 362.5399779 556.7077027 367.4231567 556.7077027 367.4231567 L 530.6781617 387.4421386 C 560.3876954 385.4795532 636.881836 374.586853 636.881836 374.586853 L 655.232605 374.2924194 C 638.8543091 380.0993652 620.0050659000001 386.82769770000004 595.8134155 393.869812 C 606.2645874 394.9002075 632.6130981 391.5146484 632.6130981 391.5146484 C 605.822998 408.14807129999997 561.2218017 414.6247558 561.2218017 414.6247558 C 575.7944946 415.8023681 600.3766479 414.0360107 600.3766479 414.0360107 C 564.1658325 435.8213501 498.5153198 441.7093505 498.5153198 441.7093505 C 585.9511719 448.7748413 593.2129517 491.8548584 593.2129517 491.8548584 z M 491.8913574 429.050293 C 473.7860107 420.071167 437.4279785 436.557312 423.296875 442.4453125 C 409.1658936 448.333252 394.4459839 449.0692139 394.4459839 449.0692139 C 418.4393311 460.5506592 466.2788696 431.2581787 491.8913574 429.050293 z M 474.3747559 388.4970703 C 480.85150150000004 384.0811157 480.85150150000004 375.6907959 480.85150150000004 375.6907959 C 480.85150150000004 375.6907959 467.67724610000005 379.0027466 462.74603270000006 387.2459106 C 459.2988281 393.0083618 469.6860962 391.6938477 474.3747559 388.4970703 z M 629.9000244 454.2211914 C 617.1428223 442.73968510000003 612.1544189 423.3328857 612.1544189 423.3328857 C 599.7244262 430.27850340000003 589.5840454 435.5012817 569.548706 443.0341186 C 582.7161865 448.5108032 602.0731201000001 456.0343627 612.0072631 457.5320434 C 608.4744872 453.11602780000004 604.9417113000001 446.9337158 604.2057494000001 440.4569702 C 615.4909668 449.8286133 629.9000244 454.2211914 629.9000244 454.2211914 z M 724.6467896 544.4863892 C 679.8093262 516.5848999 631.9625245 493.4828492 618.6639405000001 463.5272216999999 C 618.6639405000001 463.5272216999999 618.7260133000001 482.2356567999999 623.8728638000001 492.8122558999999 C 665.9218750000001 579.2219238999999 780.0967408000001 590.2037963999999 786.9852906000001 694.3445434999999 C 806.048645 640.7543945 776.7550049 576.9123535 724.6467896 544.4863892 z M 550.9526367 632.0203857 C 550.9526367 632.0203857 554.4854126 674.4626464 544.4758911 712.390747 C 541.9497681 721.9627685 539.1984253 723.6473388 529.9522705 726.9143066 C 523.5644531 729.1713867000001 524.2606201000001 734.8630371 524.2606201000001 734.8630371 C 529.7560425000001 731.1340332000001 543.3662109 732.7364502 550.7563476000001 720.8301392000001 C 563.1210327000001 700.9092408000001 562.1397094000001 643.5999756000001 562.1397094000001 643.5999756000001 C 556.055481 638.3008423 550.9526367 632.0203857 550.9526367 632.0203857 z M 486.3440552 632.0203857 C 486.3440552 632.0203857 489.87677 674.4626464 479.8673096 712.390747 C 477.3411866 721.9627685 474.5899048 723.6473388 465.34375 726.9143066 C 458.9559326 729.1713867000001 459.6520386 734.8630371 459.6520386 734.8630371 C 465.147461 731.1340332000001 478.7576905 732.7364502 486.14782720000005 720.8301392000001 C 498.51245120000004 700.9092408000001 497.5311280000001 643.5999756000001 497.5311280000001 643.5999756000001 C 491.4469604 638.3008423 486.3440552 632.0203857 486.3440552 632.0203857 z M 669.4963989 734.470459 L 679.6040649 734.470459 C 688.7303466000001 725.6386109 712.8702392 736.4793701 721.4077758000001 729.4138184 C 703.8427124 728.1900635 676.0385742 709.977356 669.4963989 734.470459 z M 816.8911133 394.5402832 L 826.7043457 375.6988525 C 732.1048584 389.829956 739.1703491 469.1208496 739.1703491 469.1208496 L 728.1795654 440.8587036 C 706.197937 498.1679687 740.8857422 528.659668 765.6660766 551.3556518 C 791.9164428 575.3980712 793.2434692 591.5899047 793.2434692 591.5899047 C 805.1643066 555.3790893 783.5261230000001 509.7475585 783.5261230000001 509.7475585 C 870.1309814000001 564.3484496 808.8442382000001 635.7494506 808.8442382000001 635.7494506 C 858.5973510000001 606.3097533 843.9756469 548.2153930000001 843.9756469 548.2153930000001 L 832.2464599 559.7068481000001 C 843.4031982 525.5376586000001 817.6339720999999 512.9818725000001 835.6343994 471.77038570000013 C 858.0085449000001 420.5453491000001 917.555603 426.9868164000001 917.555603 426.9868164000001 C 879.9096069 375.6988525 816.8911133 394.5402832 816.8911133 394.5402832 z" stroke-linecap="round" />
</g>
		<g transform="matrix(0.37891914727722564 0 0 0.37891914727722564 -12.95029482322957 -60.865388380713966)"  >
<linearGradient id="SVGID_408_1132528" gradientUnits="userSpaceOnUse" gradientTransform="matrix(1 0 0 1 361.2282409999999 226.72486880000005)"  x1="0" y1="0" x2="0" y2="505">
<stop offset="0%" style="stop-color:rgb(23,234,217);stop-opacity: 1"/>
<stop offset="100%" style="stop-color:rgb(96,120,234);stop-opacity: 1"/>
</linearGradient>
<path style="stroke: none; stroke-width: 1; stroke-dasharray: none; stroke-linecap: butt; stroke-dashoffset: 0; stroke-linejoin: miter; stroke-miterlimit: 4; fill: url(#SVGID_408_1132528); fill-rule: nonzero; opacity: 1;"  paint-order="stroke"  transform=" translate(-605.8230656426691, -479.37104045)" d="M 425.381073 275.9382019 C 425.46002200000004 262.0032959 427.6011963 242.6122894 436.9700317 226.72486880000002 C 436.9700317 226.72486880000002 428.0092163 261.31649780000004 447.9772033 281.263031 C 447.9772033 281.263031 435.537506 286.68164060000004 426.5093078 294.33596800000004 C 426.5093078 294.33596800000004 426.48815909999996 282.414978 432.8667602 267.6460571 C 429.2604065 270.6636047 427.567627 272.5772095 425.381073 275.9382019 z M 515.0996094 393.8207703 C 526.1885987 384.0075379 546.1094360999999 371.1522217 546.1094360999999 371.1522217 C 514.7908935999999 371.3484802 508.23043829999995 388.3744202 485.05676279999994 401.72042849999997 C 464.60479749999996 413.498993 433.1448669999999 419.82427979999994 393.61184699999995 424.73245239999994 C 389.09423839999994 425.2933044999999 361.22824099999997 422.2791442999999 361.22824099999997 422.2791442999999 C 371.6302796 410.6504516999999 400.1577149 403.5031432999999 410.15133669999994 385.3089294999999 C 416.52578739999996 373.7036438999999 387.62991339999996 373.1280517999999 406.7615966999999 339.3573608999999 C 431.83441159999995 295.09970099999987 483.5991820999999 287.0527954999999 483.5991820999999 287.0527954999999 L 456.1062621999999 322.4008484999999 L 490.2721862999999 308.0531006999999 C 511.0762633999999 257.02435309999987 555.9227294999998 229.44917309999988 555.9227294999998 229.44917309999988 C 541.7916259999998 254.1785279999999 538.2588500999998 304.02972419999986 491.15533449999987 337.39468399999987 C 508.03411869999985 332.6843568999999 527.6605834999999 318.1607972999999 527.6605834999999 318.1607972999999 C 527.6605834999999 331.1141969999999 515.0996094 343.6751405999999 515.0996094 343.6751405999999 C 531.9784546 341.7124940999999 589.6801757999999 315.0205079999999 589.6801757999999 315.0205079999999 C 577.9042969 342.1050416999999 539.8289795 351.9182740999999 539.8289795 351.9182740999999 C 578.6893921 349.1705323999999 616.3721314 370.7596741999999 655.2326049999999 374.2924500999999 L 515.0996094 393.8207703 z M 512.9407959 359.2781677 C 512.9407959 359.2781677 477.6131287 360.45578 460.832489 373.4092407 C 444.0518493 386.3627014 423.7384949 408.7368774 412.5513916 412.5639953 C 412.5513916 412.5639953 433.600769 409.7672424 443.4631042 404.7624816 C 453.3253784 399.7578124 457.00530999999995 398.8746032 461.86285399999997 398.8746032 C 466.72045899999995 398.8746032 479.67388919999996 395.1946105 484.38427729999995 389.1595153 C 489.094574 383.1243591 497.337677 366.3437195 512.9407959 359.2781677 z M 618.6639404 463.5272522 C 618.6639404 463.5272522 613.2339477 500.3667908 590.1073608 522.1123047 C 575.6991577 535.6600341999999 536.8215332000001 565.3885498 567.1444702 623.3848267 C 567.1444702 623.3848267 566.8500366 588.6459960999999 577.1539306 589.8235473999999 C 587.4578246 591.0011596999999 585.6914671999999 604.2490234999999 611.5983276 618.5272828 C 611.5983276 618.5272828 603.6496582 595.1227418 608.3600464 566.8605957999999 C 624.2574463 599.097046 656.6410523 588.6459961999999 670.1833495999999 627.2119141999999 C 670.1833495999999 627.2119141999999 675.1880492999999 612.197693 695.5014647999999 606.8985597 C 695.5014647999999 606.8985597 651.0475462999999 647.2309571999999 704.0390013999998 703.7551271 C 704.0390013999998 703.7551271 666.9450072999998 655.7684938 704.0390013999998 616.0248415 C 704.0390013999998 616.0248415 697.0715941999998 628.8801882 699.3286131999998 643.6981813 C 699.3286131999998 643.6981813 705.6091307999999 622.2072145 726.0206297999998 616.122986 C 726.0206297999998 616.122986 702.5670164999998 648.1140749 727.2963255999998 678.1425783 C 752.0256956999998 708.1710817 749.0817259999998 726.4237062 743.4881590999998 732.0172120999999 C 743.4881590999998 732.0172120999999 793.3744505999998 723.7506105 789.1196898999998 670.4882813999999 C 779.8505249 554.454834 636.1477661 533.3202515 618.6639404 463.5272522 z M 846.3962402 537.2644653 L 832.24646 559.7068481 C 833.1459960999999 535.0664672 818.5297241999999 518.6413574000001 798.9002075999999 492.3199157 C 781.6289062999999 469.160675 800.0778198999999 437.95462030000004 800.0778198999999 437.95462030000004 C 733.3477783999999 461.89892570000006 743.8054199999999 529.838562 743.8054199999999 529.838562 C 763.1865234999999 553.7828979000001 781.9069215 562.0765991000001 793.2434692999999 594.9754639 C 809.7319336999999 546.9887696000001 788.8253173999999 516.2243042 788.8253173999999 516.2243042 C 862.7188720999999 571.8653564 804.7227172999999 638.987854 804.7227172999999 638.987854 C 869.555481 621.4620361 846.3962402 537.2644653 846.3962402 537.2644653 z" stroke-linecap="round" />
</g>
</g>
</g>
<g transform="matrix(1.874417721400672 0 0 1.874417721400672 643.4890676698683 708.6400617959947)" id="text-logo"  >
<g style=""  paint-order="stroke"   >
		<g transform="matrix(1 0 0 1 5.684342e-14 0)" id="text-logo-path-0"  >
<filter id="SVGID_1132524" y="-43.10924369747899%" height="186.21848739495798%" x="-20.945483425675548%" width="141.8909668513511%" >
	<feGaussianBlur in="SourceAlpha" stdDeviation="0"></feGaussianBlur>
	<feOffset dx="5" dy="11" result="oBlur" ></feOffset>
	<feFlood flood-color="rgb(38,47,52)" flood-opacity="1"/>
	<feComposite in2="oBlur" operator="in" />
	<feMerge>
		<feMergeNode></feMergeNode>
		<feMergeNode in="SourceGraphic"></feMergeNode>
	</feMerge>
</filter>
<path style="stroke: rgb(46,68,90); stroke-width: 18; stroke-dasharray: none; stroke-linecap: butt; stroke-dashoffset: 0; stroke-linejoin: miter; stroke-miterlimit: 4; fill: rgb(242,242,242); fill-rule: nonzero; opacity: 1;filter: url(#SVGID_1132524);"  paint-order="stroke"  transform=" translate(-266.52500000000003, 23.8)" d="M 9.79 -43.52 L 2.11 0 L 41.68 0 L 43.11 -7.89 L 18.02 -7.89 L 25.02 -47.6 L 7.07 -47.6 Z M 57.32 -43.52 L 49.64 0 L 89.22 0 L 90.64 -7.89 L 65.55 -7.89 L 67.8 -20.6 L 89.42 -20.6 L 90.85 -28.49 L 69.22 -28.49 L 71.2 -39.71 L 96.22 -39.71 L 97.65 -47.6 L 54.6 -47.6 Z M 104.86 -43.52 L 97.17 0 L 136.75 0 L 138.18 -7.89 L 113.08 -7.89 L 115.33 -20.6 L 136.95 -20.6 L 138.38 -28.49 L 116.76 -28.49 L 118.73 -39.71 L 143.75 -39.71 L 145.18 -47.6 L 102.14 -47.6 Z M 194.55 -47.6 L 149.67 -47.6 L 152.39 -43.52 L 151.71 -39.71 L 165.99 -39.71 L 158.98 0 L 173.54 0 L 180.54 -39.71 L 193.12 -39.71 Z M 215.36 -43.52 L 208.9 -6.94 L 215.83 0 L 257.31 0 L 260.92 -20.6 L 262.34 -28.49 L 233.85 -28.49 L 232.42 -20.6 L 246.43 -20.6 L 244.19 -7.96 L 223.65 -7.96 L 229.16 -39.64 L 249.83 -39.64 L 248.61 -32.98 L 263.16 -32.98 L 264.52 -40.66 L 257.58 -47.6 L 212.64 -47.6 Z M 272.95 -43.52 L 265.27 0 L 279.82 0 L 283.49 -20.6 L 304.1 -20.6 L 300.42 0 L 314.91 0 L 322.12 -40.66 L 315.18 -47.6 L 270.23 -47.6 Z M 284.85 -28.49 L 286.82 -39.71 L 307.43 -39.71 L 305.46 -28.49 Z M 330.55 -43.52 L 322.86 0 L 337.35 0 L 342.79 -30.6 L 349.93 0 L 358.97 0 L 376.99 -30.53 L 371.62 0 L 386.1 0 L 394.54 -47.6 L 377.94 -47.6 L 356.39 -11.02 L 347.89 -47.6 L 327.83 -47.6 Z M 401.74 -43.52 L 394.06 0 L 408.54 0 L 416.98 -47.6 L 399.02 -47.6 Z M 424.18 -43.52 L 416.5 0 L 430.98 0 L 437.1 -34.61 L 449.62 0 L 466.14 0 L 474.57 -47.6 L 460.02 -47.6 L 453.97 -13.06 L 441.52 -47.6 L 421.46 -47.6 Z M 481.78 -43.52 L 475.32 -6.94 L 482.26 0 L 523.74 0 L 527.34 -20.6 L 528.77 -28.49 L 500.28 -28.49 L 498.85 -20.6 L 512.86 -20.6 L 510.61 -7.96 L 490.08 -7.96 L 495.58 -39.64 L 516.26 -39.64 L 515.03 -32.98 L 529.58 -32.98 L 530.94 -40.66 L 524.01 -47.6 L 479.06 -47.6 Z" stroke-linecap="round" />
</g>
</g>
</g>
</svg>